<svg width="25.000000" height="19.999998" viewBox="0 0 25 20" fill="none" xmlns="http://www.w3.org/2000/svg" xmlns:xlink="http://www.w3.org/1999/xlink">
	<desc>
			Created with Pixso.
	</desc>
	<defs/>
	<path id="git" d="M12.5 0.000534058C9.21984 -0.0273743 6.06066 1.03638 3.71674 2.958C1.37283 4.87963 0.0359774 7.5019 0 10.2485C0.012639 12.4191 0.846526 14.5305 2.38189 16.2794C3.91725 18.0284 6.07509 19.3248 8.54545 19.9826C9.17046 20.0778 9.39773 19.7638 9.39773 19.4878C9.39773 19.2119 9.39773 18.6029 9.39773 17.7465C5.92046 18.365 5.18182 16.3763 5.18182 16.3763C4.95034 15.752 4.45822 15.2184 3.79545 14.8729C2.65909 14.2449 3.88636 14.2544 3.88636 14.2544C4.27915 14.2984 4.65495 14.4163 4.98558 14.5992C5.31621 14.7821 5.59309 15.0253 5.79545 15.3106C6.1481 15.8227 6.72674 16.1983 7.40683 16.3567C8.08692 16.5151 8.81408 16.4435 9.43182 16.1575C9.49535 15.6364 9.77715 15.151 10.2273 14.7873C7.45455 14.5304 4.54545 13.655 4.54545 9.72515C4.52066 8.70005 4.973 7.70707 5.80682 6.95621C5.42708 6.07611 5.47192 5.10673 5.93182 4.25386C5.93182 4.25386 6.98864 3.97792 9.34091 5.30055C11.3885 4.84366 13.5433 4.84366 15.5909 5.30055C17.9773 3.97792 19 4.25386 19 4.25386C19.4599 5.10673 19.5047 6.07611 19.125 6.95621C19.9782 7.6933 20.4551 8.67962 20.4545 9.70612C20.4545 13.6454 17.5227 14.5113 14.7727 14.7682C15.0738 15.013 15.3064 15.3107 15.4538 15.6397C15.6012 15.9688 15.6596 16.3211 15.625 16.6713L15.625 19.4783C15.625 19.4783 15.8523 20.0778 16.4773 19.9731C18.9406 19.3112 21.0912 18.0144 22.6218 16.268C24.1524 14.5215 24.9848 12.4147 25 10.2485C24.964 7.5019 23.6272 4.87963 21.2833 2.958C18.9393 1.03638 15.7802 -0.0273743 12.5 0.000534058Z" fill="#FFFFFF" fill-opacity="1.000000" fill-rule="nonzero"/>
</svg>
