<svg width="25.000000" height="20.000000" viewBox="0 0 25 20" fill="none" xmlns="http://www.w3.org/2000/svg" xmlns:xlink="http://www.w3.org/1999/xlink">
	<desc>
			Created with Pixso.
	</desc>
	<defs/>
	<path id="inst" d="M12.5 0C9.10192 0 8.67843 0.0131302 7.34857 0.058136C6.01325 0.110641 5.11002 0.276283 4.31304 0.523819C3.49106 0.781349 2.79098 1.12327 2.09948 1.67959C1.4033 2.23278 0.972 2.79285 0.65477 3.45043C0.345352 4.08801 0.138298 4.8106 0.0726624 5.87886C0.0125046 6.94337 0 7.28153 0 10C0 12.7185 0.0164108 13.0573 0.0726624 14.1211C0.138298 15.1863 0.345352 15.912 0.65477 16.5496C0.976685 17.2071 1.40408 17.7672 2.09948 18.3204C2.79098 18.8774 3.49106 19.2224 4.31304 19.4762C5.11002 19.7206 6.01716 19.8894 7.34857 19.9419C8.67921 19.99 9.10192 20 12.5 20C15.8981 20 16.3216 19.9869 17.6514 19.9419C18.9828 19.8894 19.89 19.72 20.687 19.4762C21.5089 19.2187 22.209 18.8767 22.9005 18.3204C23.5967 17.7672 24.028 17.2103 24.3452 16.5496C24.6507 15.912 24.8617 15.1863 24.9273 14.1211C24.9875 13.0566 25 12.7185 25 10C25 7.28153 24.9836 6.94274 24.9273 5.87886C24.8617 4.81373 24.65 4.08426 24.3452 3.45043C24.0233 2.79285 23.5959 2.23278 22.9005 1.67959C22.209 1.12264 21.5128 0.777596 20.687 0.523819C19.89 0.276283 18.9828 0.110641 17.6514 0.058136C16.3208 0.0100021 15.8981 0 12.5 0ZM12.5 1.80022C15.8371 1.80022 16.2356 1.81335 17.5545 1.85836C18.7711 1.90399 19.4337 2.06651 19.8736 2.20403C20.4604 2.38593 20.8706 2.60095 21.3144 2.95225C21.7496 3.30042 22.0184 3.63233 22.2458 4.10176C22.4176 4.45368 22.6208 4.98375 22.6778 5.95699C22.7341 7.01212 22.7505 7.33154 22.7505 10.0006C22.7505 12.6697 22.7341 12.9891 22.6731 14.0443C22.6075 15.0175 22.4044 15.5476 22.2332 15.8995C21.9965 16.3689 21.7324 16.6971 21.2964 17.0521C20.8565 17.4003 20.4377 17.6153 19.8556 17.7972C19.4212 17.9347 18.7492 18.0973 17.528 18.1429C16.202 18.1879 15.8114 18.201 12.4656 18.201C9.11989 18.201 8.73 18.1879 7.40249 18.1391C6.18593 18.0866 5.51476 17.9241 5.07485 17.7872C4.48103 17.5978 4.07394 17.3866 3.63795 17.0378C3.19806 16.6858 2.91833 16.3508 2.70268 15.8851C2.52766 15.5376 2.32764 15 2.26278 14.023C2.21825 12.9747 2.19715 12.6497 2.19715 9.98563C2.19715 7.32279 2.21825 6.99712 2.26278 5.93575C2.32764 4.95875 2.52766 4.42242 2.70268 4.07363C2.91833 3.59795 3.19884 3.27291 3.63795 2.92099C4.07317 2.57282 4.48103 2.34779 5.07485 2.17152C5.51476 2.03463 6.16953 1.87211 7.39077 1.82335C8.71671 1.78522 9.10739 1.77147 12.4484 1.77147L12.5 1.80022ZM12.5 4.86749C8.9519 4.86749 6.08279 7.16589 6.08279 10.0013C6.08279 12.8397 8.95581 15.135 12.5 15.135C16.0481 15.135 18.9172 12.8366 18.9172 10.0013C18.9172 7.16277 16.0442 4.86749 12.5 4.86749ZM12.5 13.3348C10.1966 13.3348 8.33308 11.844 8.33308 10.0013C8.33308 8.15852 10.1966 6.66771 12.5 6.66771C14.8034 6.66771 16.6669 8.15852 16.6669 10.0013C16.6669 11.844 14.8034 13.3348 12.5 13.3348ZM20.676 4.66246C20.676 5.32692 20.0002 5.86324 19.1735 5.86324C18.3429 5.86324 17.6725 5.32629 17.6725 4.66246C17.6725 4.00175 18.3476 3.46418 19.1735 3.46418C19.9994 3.46418 20.676 4.00175 20.676 4.66246Z" fill="#FFFFFF" fill-opacity="1.000000" fill-rule="nonzero"/>
</svg>
