<svg width="25.000000" height="16.666664" viewBox="0 0 25 16.6667" fill="none" xmlns="http://www.w3.org/2000/svg" xmlns:xlink="http://www.w3.org/1999/xlink">
	<desc>
			Created with Pixso.
	</desc>
	<defs/>
	<path id="vk" d="M24.4264 1.12856C24.6001 0.478027 24.4264 0 23.5993 0L20.8643 0C20.1689 0 19.8483 0.412941 19.6744 0.868286C19.6744 0.868286 18.2835 4.67389 16.3131 7.14584C15.6757 7.86143 15.386 8.08916 15.0382 8.08916C14.8644 8.08916 14.6036 7.86143 14.6036 7.21095L14.6036 1.12856C14.6036 0.347916 14.4109 0 13.8314 0L9.53348 0C9.09891 0 8.83754 0.362312 8.83754 0.705688C8.83754 1.44572 9.82265 1.61639 9.92419 3.6981L9.92419 8.21928C9.92419 9.21048 9.76473 9.39024 9.41701 9.39024C8.48983 9.39024 6.23445 5.56764 4.8968 1.19358C4.63466 0.343414 4.37173 0 3.67274 0L0.937729 0C0.156296 0 0 0.412941 0 0.868286C0 1.68147 0.927231 5.71475 4.31734 11.049C6.57739 14.6919 9.76166 16.6667 12.6592 16.6667C14.3977 16.6667 14.6128 16.2281 14.6128 15.4726L14.6128 12.7193C14.6128 11.8421 14.7775 11.667 15.328 11.667C15.7337 11.667 16.4291 11.8948 18.0517 13.6512C19.9062 15.7329 20.2119 16.6667 21.2549 16.6667L23.99 16.6667C24.7714 16.6667 25.1621 16.2281 24.9367 15.3625C24.69 14.4999 23.8047 13.2483 22.6299 11.7646C21.9924 10.9189 21.0362 10.0082 20.7464 9.55274C20.3408 8.96738 20.4567 8.70715 20.7464 8.18678C20.7464 8.18678 24.0787 2.91747 24.4264 1.12856Z" fill="#FFFFFF" fill-opacity="1.000000" fill-rule="evenodd"/>
</svg>
